<svg width="11" height="14" viewBox="0 0 11 14" fill="none" xmlns="http://www.w3.org/2000/svg">
<path d="M10.9798 7.75542C10.9389 7.64646 10.8435 7.57536 10.7376 7.57536H7.86485V0.29137C7.86485 0.130539 7.7474 0 7.60268 0H3.4081C3.26339 0 3.14593 0.130539 3.14593 0.29137V7.57539H0.262167C0.156262 7.57539 0.0608272 7.64649 0.0199301 7.75488C-0.0204509 7.86384 0.00157055 7.98913 0.0765568 8.07247L5.30667 13.9043C5.35595 13.9591 5.42255 13.99 5.49228 13.99C5.56201 13.99 5.62861 13.9591 5.67789 13.9049L10.9232 8.07304C10.9982 7.98968 11.0207 7.86441 10.9798 7.75542Z" fill="#C80000"/>
</svg>
