<svg width="22" height="22" viewBox="0 0 22 22" fill="none" xmlns="http://www.w3.org/2000/svg">
<g clip-path="url(#clip0)">
<path d="M16.049 7.0385C15.5905 6.53796 14.8777 5.86236 14.5745 7.38783C14.4714 7.90651 14.2304 8.30633 14.024 8.62826C13.8014 7.50196 13.1319 6.33617 12.501 5.55015C12.265 5.25607 11.4273 4.08702 11.2664 2.13125C11.2424 1.83937 10.8957 1.7023 10.6788 1.89918C8.60634 3.78052 7.46878 6.36801 7.42654 9.28099C7.42654 9.28099 6.56356 8.55358 6.09473 7.20032C5.96849 6.8359 5.47993 6.76638 5.26797 7.0886C5.22728 7.15048 5.18955 7.21244 5.15552 7.27259C3.55652 10.0999 2.78734 13.5334 3.49843 16.7277C4.68737 22.0771 12.5521 23.5727 16.7157 20.2104C20.7894 16.9209 19.4945 10.7984 16.049 7.0385Z" fill="#ED694A"/>
<path d="M4.60509 17.0638C3.90225 13.8353 4.64621 10.3684 6.20765 7.49685C6.16816 7.40158 6.13018 7.30306 6.09469 7.20062C5.96844 6.8362 5.47989 6.76668 5.26792 7.0889C5.22723 7.15078 5.18955 7.21274 5.15552 7.27289C3.55652 10.1002 2.78734 13.5337 3.49843 16.728C4.04074 19.168 5.9721 20.8057 8.30749 21.5469C6.48562 20.6643 5.05888 19.1514 4.60509 17.0638Z" fill="#D8553A"/>
<path d="M8.53892 9.22766C8.62524 6.58392 9.58147 4.21333 11.2929 2.39223C11.2811 2.29194 11.2724 2.20226 11.2668 2.1342C11.2422 1.83982 10.9082 1.69218 10.6923 1.88735C8.6906 3.6971 7.47054 6.25843 7.42676 9.28119L7.8014 9.57214C7.98591 9.71544 8.2359 9.70921 8.41212 9.57794C8.51726 9.48882 8.53234 9.35433 8.53892 9.22766Z" fill="#D8553A"/>
<path d="M14.7917 10.9492C14.4531 10.5795 13.9266 10.0804 13.7026 11.2072C13.6265 11.5903 13.4485 11.8856 13.296 12.1234C13.1317 11.2915 12.6371 10.4304 12.1712 9.84985C11.9968 9.63264 11.3781 8.76919 11.2592 7.32453C11.2415 7.10892 10.9854 7.00773 10.8253 7.15313C9.29449 8.5427 8.45424 10.4539 8.42308 12.6055C8.42308 12.6055 7.78564 12.0682 7.4394 11.0687C7.34616 10.7995 6.98526 10.7482 6.82873 10.9862C6.79869 11.0318 6.77081 11.0776 6.74567 11.1221C5.56459 13.2104 4.99645 15.7464 5.52166 18.1058C6.39986 22.057 12.2089 23.1617 15.2842 20.6782C18.2931 18.2486 17.3367 13.7263 14.7917 10.9492Z" fill="#F4A32C"/>
<path d="M6.61698 18.4158C6.15197 16.1094 6.63361 13.6346 7.65476 11.5738C7.57694 11.4214 7.50321 11.253 7.43936 11.0687C7.34611 10.7996 6.98522 10.7482 6.82869 10.9862C6.79865 11.0319 6.77076 11.0777 6.74563 11.1221C5.56459 13.2105 4.9965 15.7464 5.52162 18.1058C5.93008 19.9435 7.40524 21.165 9.17572 21.6966C7.91781 21.0658 6.92738 19.9574 6.61698 18.4158Z" fill="#E89528"/>
<path d="M13.6436 14.5194C13.4144 14.2691 13.058 13.9313 12.9064 14.6941C12.8549 14.9534 12.7343 15.1533 12.6311 15.3143C12.5198 14.7511 12.1851 14.1682 11.8696 13.7752C11.7516 13.6282 11.3328 13.0437 11.2523 12.0658C11.2403 11.9198 11.067 11.8513 10.9585 11.9497C9.92228 12.8904 9.3535 14.1842 9.3324 15.6406C9.3324 15.6406 8.90086 15.2769 8.66651 14.6003C8.60339 14.4181 8.35911 14.3834 8.25315 14.5445C8.23279 14.5753 8.21397 14.6064 8.19691 14.6364C7.39743 16.0501 7.01282 17.7668 7.36834 19.364C7.96281 22.0388 11.8952 22.7865 13.977 21.1054C14.6899 20.5297 15.1319 19.7185 15.2215 18.8212C15.3568 17.4621 14.8338 15.8181 13.6436 14.5194Z" fill="#F4D44E"/>
<path d="M12.579 17.8321C12.4513 17.6927 12.2527 17.5045 12.1682 17.9294C12.1395 18.0739 12.0724 18.1853 12.0149 18.275C11.9529 17.9612 11.7664 17.6364 11.5906 17.4175C11.5249 17.3356 11.2915 17.0099 11.2467 16.4651C11.24 16.3838 11.1434 16.3457 11.083 16.4004C10.5057 16.9245 10.1888 17.6453 10.177 18.4568C10.177 18.4568 9.93663 18.2541 9.80605 17.8771C9.77086 17.7756 9.63478 17.7562 9.57578 17.846C9.56444 17.8633 9.55395 17.8805 9.5445 17.8973C9.09909 18.6849 8.8848 19.6413 9.08289 20.5312C9.53397 22.5606 13.2313 22.4991 13.4581 20.2287C13.5334 19.4715 13.242 18.5556 12.579 17.8321Z" fill="#EAE9E8"/>
<path d="M9.94136 20.9341C9.74327 20.1381 9.95756 19.2826 10.403 18.578C10.4124 18.563 10.423 18.5476 10.4343 18.5322C10.4933 18.4519 10.6294 18.4692 10.6645 18.56C10.7951 18.8972 11.0355 19.0785 11.0355 19.0785C11.0452 18.4821 11.2612 17.9407 11.658 17.5064C11.5693 17.3836 11.2978 17.0872 11.2467 16.4654C11.24 16.384 11.1434 16.3459 11.083 16.4007C10.5057 16.9248 10.1888 17.6456 10.177 18.457C10.177 18.457 9.93663 18.2544 9.80605 17.8774C9.7709 17.7759 9.63478 17.7565 9.57578 17.8463C9.56444 17.8636 9.55395 17.8808 9.5445 17.8976C9.09909 18.6852 8.8848 19.6416 9.08289 20.5314C9.26619 21.3562 10.0193 21.8519 10.8518 21.9715C10.4027 21.751 10.0575 21.4017 9.94136 20.9341Z" fill="#F7E7A1"/>
<path d="M7.93149 2.92381C8.86069 2.16803 8.85863 0.754059 7.93149 0C7.00229 0.755734 7.00431 2.16975 7.93149 2.92381Z" fill="#D8553A"/>
<path d="M19.0693 8.98973C19.9985 8.23395 19.9964 6.81998 19.0693 6.06592C18.6446 6.4113 18.1422 8.23567 19.0693 8.98973Z" fill="#D8553A"/>
<path d="M2.61159 9.56524C3.28126 9.02052 3.2798 8.00152 2.61159 7.45801C2.30552 7.70693 1.94338 9.02177 2.61159 9.56524Z" fill="#D8553A"/>
<path d="M14.2097 5.03106C14.8794 4.48634 14.8779 3.46734 14.2097 2.92383C13.54 3.4685 13.5415 4.48759 14.2097 5.03106Z" fill="#D8553A"/>
<path d="M9.27729 12.2599C9.43107 10.4444 10.1244 8.83011 11.2885 7.59945C11.2767 7.51024 11.2668 7.41868 11.259 7.32453C11.2413 7.10892 10.9853 7.00773 10.8251 7.15313C9.61206 8.25425 8.83355 9.68321 8.54677 11.2995L8.54634 11.2994C8.52507 11.4192 8.49869 11.5939 8.48202 11.7311C8.48206 11.7312 8.48211 11.7313 8.48219 11.7314C8.44734 12.0177 8.42715 12.3092 8.42285 12.6055C8.45525 12.6118 9.18864 12.9888 9.27729 12.2599Z" fill="#E89528"/>
<path d="M8.43994 19.7434C8.1239 18.2514 8.39306 16.6602 9.01834 15.2816C8.89721 15.1117 8.76465 14.8835 8.66655 14.6003C8.60339 14.4181 8.35915 14.3833 8.25315 14.5444C8.23283 14.5753 8.21392 14.6064 8.19691 14.6364C7.39743 16.0501 7.01282 17.7668 7.36834 19.364C7.64678 20.6166 8.65727 21.4466 9.86689 21.8024C9.1628 21.335 8.6302 20.6432 8.43994 19.7434Z" fill="#E8C842"/>
<path d="M10.4737 14.9886C10.5785 14.2399 10.8847 13.4149 11.3668 12.7252C11.3143 12.5305 11.273 12.3105 11.2528 12.0658C11.2408 11.9198 11.0674 11.8513 10.959 11.9497C10.3134 12.5359 9.84997 13.2594 9.5867 14.0736L9.58601 14.0734C9.54459 14.2013 9.48602 14.4133 9.45053 14.5805C9.45083 14.5805 9.45113 14.5805 9.45143 14.5803C9.37873 14.9217 9.33829 15.2759 9.33301 15.6406C9.91274 15.7129 10.3923 15.5694 10.4737 14.9886Z" fill="#E8C842"/>
</g>
<defs>
<clipPath id="clip0">
<rect width="22" height="22" fill="white"/>
</clipPath>
</defs>
</svg>
