<svg width="204" height="75" viewBox="0 0 204 75" fill="none" xmlns="http://www.w3.org/2000/svg">
<path d="M26.9 55C26.7333 54.6333 26.5 54.1 26.2 53.4C25.9 52.7 25.55 51.9 25.15 51C24.7833 50.0667 24.3667 49.0667 23.9 48C23.4667 46.9 23.0167 45.7667 22.55 44.6H9.75L5.45 55H0.05L16.2 17.05C16.4 17.5167 16.75 18.3667 17.25 19.6C17.7833 20.8333 18.4 22.3167 19.1 24.05C19.8333 25.75 20.6333 27.65 21.5 29.75C22.4 31.8167 23.3 33.9167 24.2 36.05C25.1333 38.1833 26.0333 40.2833 26.9 42.35C27.8 44.4167 28.6167 46.3167 29.35 48.05C30.0833 49.7833 30.7 51.2667 31.2 52.5C31.7333 53.7 32.1 54.5333 32.3 55H26.9ZM11.65 40H20.7C20.2333 38.9 19.7833 37.85 19.35 36.85C18.95 35.8167 18.5667 34.8833 18.2 34.05C17.8667 33.1833 17.5667 32.4333 17.3 31.8C17.0333 31.1667 16.8333 30.6667 16.7 30.3C16.6667 30.2333 16.5833 30 16.45 29.6C16.35 29.2 16.2667 28.8333 16.2 28.5C16.1333 28.8333 16.0333 29.2 15.9 29.6C15.7667 30 15.6833 30.2333 15.65 30.3L11.65 40ZM32.45 38.25V34.05H36V29.2C36 24.8333 37.0167 21.6 39.05 19.5C41.1167 17.3667 44.0333 16.25 47.8 16.15V20.25C45.2 20.3833 43.3 21.2167 42.1 22.75C40.9 24.2833 40.3 26.4667 40.3 29.3V34.05H46.9V38.25H40.3V55H36V38.25H32.45ZM52.1633 24.9H56.4133V34.15H62.0133V37.95H56.4133V55H52.1633V37.95H48.4133V34.15H52.1633V24.9ZM82.8094 52.55C81.8094 53.45 80.5927 54.1667 79.1594 54.7C77.726 55.2333 76.2594 55.5 74.7594 55.5C73.226 55.5 71.776 55.2167 70.4094 54.65C69.076 54.05 67.9094 53.2667 66.9094 52.3C65.9094 51.3 65.1094 50.1333 64.5094 48.8C63.9427 47.4667 63.6594 46.05 63.6594 44.55C63.6594 43.05 63.9427 41.6333 64.5094 40.3C65.1094 38.9667 65.9094 37.8 66.9094 36.8C67.9094 35.8 69.0594 35.0167 70.3594 34.45C71.6927 33.85 73.1094 33.55 74.6094 33.55C76.976 33.55 79.026 34.2667 80.7594 35.7C82.526 37.1 83.7927 38.95 84.5594 41.25C83.526 41.6167 82.3427 42.0667 81.0094 42.6C79.676 43.1333 78.2927 43.7 76.8594 44.3C75.426 44.8667 73.9927 45.4333 72.5594 46C71.126 46.5667 69.7927 47.0833 68.5594 47.55C69.126 48.6833 69.9427 49.6 71.0094 50.3C72.1094 50.9667 73.326 51.3 74.6594 51.3C75.5594 51.3 76.4594 51.1333 77.3594 50.8C78.2927 50.4667 79.0427 50.0167 79.6094 49.45L82.8094 52.55ZM79.2094 40.25C78.8094 39.4167 78.176 38.8 77.3094 38.4C76.4427 37.9667 75.5594 37.75 74.6594 37.75C73.6927 37.75 72.7927 37.9333 71.9594 38.3C71.1594 38.6667 70.4594 39.1667 69.8594 39.8C69.2594 40.4 68.776 41.1 68.4094 41.9C68.076 42.7 67.9094 43.5167 67.9094 44.35C67.9094 44.5167 67.9094 44.6333 67.9094 44.7C67.9427 44.7667 67.9594 44.8167 67.9594 44.85C68.826 44.5167 69.7594 44.15 70.7594 43.75C71.7927 43.3167 72.8094 42.9 73.8094 42.5C74.8094 42.0667 75.776 41.6667 76.7094 41.3C77.6427 40.9 78.476 40.55 79.2094 40.25ZM99.7539 39.05C98.8206 39.05 97.9206 39.1833 97.0539 39.45C96.1872 39.6833 95.4039 40.05 94.7039 40.55C94.0372 41.05 93.5039 41.6833 93.1039 42.45C92.7039 43.1833 92.5039 44.0333 92.5039 45V55H88.2539V34.1H92.0039C92.0706 35.1333 92.1206 36.0833 92.1539 36.95C92.2206 37.7833 92.2872 38.6167 92.3539 39.45C92.7872 38.55 93.3539 37.7333 94.0539 37C94.7539 36.2667 95.5039 35.65 96.3039 35.15C97.1039 34.65 97.8872 34.2667 98.6539 34C99.4206 33.7 100.104 33.55 100.704 33.55L99.7539 39.05ZM132.131 52.4C131.731 52.7 131.165 53.0333 130.431 53.4C129.731 53.7333 128.898 54.05 127.931 54.35C126.965 54.65 125.881 54.9 124.681 55.1C123.515 55.3 122.265 55.4 120.931 55.4C118.098 55.4 115.548 54.9167 113.281 53.95C111.048 52.95 109.148 51.6167 107.581 49.95C106.015 48.2833 104.815 46.35 103.981 44.15C103.148 41.95 102.731 39.6167 102.731 37.15C102.731 34.4167 103.215 31.9 104.181 29.6C105.181 27.3 106.531 25.3167 108.231 23.65C109.931 21.9833 111.915 20.6833 114.181 19.75C116.481 18.8167 118.915 18.35 121.481 18.35C122.448 18.35 123.431 18.4167 124.431 18.55C125.431 18.6833 126.365 18.8667 127.231 19.1C128.131 19.3333 128.915 19.6167 129.581 19.95C130.281 20.25 130.815 20.5667 131.181 20.9C130.915 21.3 130.698 21.6333 130.531 21.9C130.398 22.1667 130.248 22.45 130.081 22.75C129.915 23.0167 129.731 23.3333 129.531 23.7C129.331 24.0667 129.065 24.55 128.731 25.15C128.298 24.85 127.781 24.6 127.181 24.4C126.615 24.2 126.015 24.0333 125.381 23.9C124.748 23.7667 124.098 23.6667 123.431 23.6C122.798 23.5333 122.215 23.5 121.681 23.5C119.748 23.5 117.948 23.8667 116.281 24.6C114.648 25.3 113.231 26.2667 112.031 27.5C110.831 28.7 109.881 30.1 109.181 31.7C108.515 33.3 108.181 34.9667 108.181 36.7C108.181 38.4 108.498 40.0333 109.131 41.6C109.798 43.1667 110.698 44.5667 111.831 45.8C112.998 47.0333 114.381 48.0167 115.981 48.75C117.615 49.4833 119.398 49.85 121.331 49.85C122.365 49.85 123.365 49.75 124.331 49.55C125.298 49.35 126.165 49.1167 126.931 48.85C127.731 48.5833 128.381 48.3167 128.881 48.05C129.415 47.7833 129.731 47.5833 129.831 47.45L132.131 52.4ZM139.966 55H135.716V16.15H139.966V55ZM144.568 44.75C144.568 43.2167 144.851 41.7833 145.418 40.45C146.018 39.0833 146.818 37.9 147.818 36.9C148.818 35.8667 149.968 35.05 151.268 34.45C152.601 33.85 154.018 33.55 155.518 33.55C156.518 33.55 157.434 33.6833 158.268 33.95C159.101 34.1833 159.818 34.4833 160.418 34.85C161.018 35.2167 161.501 35.6 161.868 36C162.234 36.4 162.484 36.75 162.618 37.05L162.818 34.1H166.918V55H162.618V52.35C162.451 52.6167 162.184 52.9333 161.818 53.3C161.451 53.6667 160.968 54.0167 160.368 54.35C159.801 54.65 159.118 54.9167 158.318 55.15C157.518 55.3833 156.601 55.5 155.568 55.5C153.968 55.5 152.484 55.2167 151.118 54.65C149.784 54.05 148.634 53.2667 147.668 52.3C146.701 51.3 145.934 50.15 145.368 48.85C144.834 47.55 144.568 46.1833 144.568 44.75ZM148.868 44.5C148.868 45.4667 149.034 46.3667 149.368 47.2C149.734 48.0333 150.218 48.75 150.818 49.35C151.418 49.95 152.134 50.4333 152.968 50.8C153.801 51.1333 154.718 51.3 155.718 51.3C156.718 51.3 157.634 51.1333 158.468 50.8C159.334 50.4333 160.068 49.95 160.668 49.35C161.301 48.7167 161.784 48 162.118 47.2C162.451 46.3667 162.618 45.4667 162.618 44.5C162.618 43.5333 162.451 42.65 162.118 41.85C161.784 41.0167 161.301 40.3 160.668 39.7C160.068 39.1 159.334 38.6333 158.468 38.3C157.634 37.9333 156.718 37.75 155.718 37.75C154.718 37.75 153.801 37.9333 152.968 38.3C152.134 38.6333 151.418 39.1 150.818 39.7C150.218 40.3 149.734 41.0167 149.368 41.85C149.034 42.65 148.868 43.5333 148.868 44.5ZM184.572 35.95L182.322 38.95C182.289 38.9167 182.172 38.8333 181.972 38.7C181.772 38.5667 181.505 38.4333 181.172 38.3C180.872 38.1667 180.505 38.05 180.072 37.95C179.672 37.8167 179.255 37.75 178.822 37.75C178.255 37.75 177.689 37.8833 177.122 38.15C176.589 38.4167 176.322 38.9167 176.322 39.65C176.322 40.2833 176.539 40.8 176.972 41.2C177.439 41.6 178.005 41.9667 178.672 42.3C179.339 42.6 180.055 42.9167 180.822 43.25C181.622 43.5833 182.355 44 183.022 44.5C183.689 44.9667 184.239 45.5667 184.672 46.3C185.139 47 185.372 47.9 185.372 49C185.372 50.8667 184.722 52.4167 183.422 53.65C182.155 54.85 180.405 55.45 178.172 55.45C176.872 55.45 175.589 55.2333 174.322 54.8C173.089 54.3333 172.089 53.6667 171.322 52.8C171.555 52.5667 171.805 52.2667 172.072 51.9C172.372 51.5333 172.655 51.1833 172.922 50.85C173.222 50.5167 173.455 50.25 173.622 50.05C173.822 49.8167 173.939 49.7 173.972 49.7C173.972 49.7333 174.089 49.8333 174.322 50C174.589 50.1667 174.922 50.35 175.322 50.55C175.722 50.7167 176.172 50.8833 176.672 51.05C177.172 51.1833 177.672 51.25 178.172 51.25C178.972 51.25 179.655 51.05 180.222 50.65C180.789 50.25 181.072 49.7167 181.072 49.05C181.072 48.45 180.839 47.9833 180.372 47.65C179.939 47.2833 179.389 46.95 178.722 46.65C178.055 46.35 177.322 46.05 176.522 45.75C175.722 45.4167 174.989 45 174.322 44.5C173.655 44 173.089 43.3833 172.622 42.65C172.189 41.8833 171.972 40.9 171.972 39.7C171.972 38.5667 172.172 37.6167 172.572 36.85C173.005 36.0833 173.539 35.4667 174.172 35C174.839 34.5 175.572 34.15 176.372 33.95C177.172 33.7167 177.939 33.6 178.672 33.6C179.639 33.6 180.672 33.8 181.772 34.2C182.872 34.6 183.805 35.1833 184.572 35.95ZM201.564 35.95L199.314 38.95C199.281 38.9167 199.164 38.8333 198.964 38.7C198.764 38.5667 198.497 38.4333 198.164 38.3C197.864 38.1667 197.497 38.05 197.064 37.95C196.664 37.8167 196.247 37.75 195.814 37.75C195.247 37.75 194.681 37.8833 194.114 38.15C193.581 38.4167 193.314 38.9167 193.314 39.65C193.314 40.2833 193.531 40.8 193.964 41.2C194.431 41.6 194.997 41.9667 195.664 42.3C196.331 42.6 197.047 42.9167 197.814 43.25C198.614 43.5833 199.347 44 200.014 44.5C200.681 44.9667 201.231 45.5667 201.664 46.3C202.131 47 202.364 47.9 202.364 49C202.364 50.8667 201.714 52.4167 200.414 53.65C199.147 54.85 197.397 55.45 195.164 55.45C193.864 55.45 192.581 55.2333 191.314 54.8C190.081 54.3333 189.081 53.6667 188.314 52.8C188.547 52.5667 188.797 52.2667 189.064 51.9C189.364 51.5333 189.647 51.1833 189.914 50.85C190.214 50.5167 190.447 50.25 190.614 50.05C190.814 49.8167 190.931 49.7 190.964 49.7C190.964 49.7333 191.081 49.8333 191.314 50C191.581 50.1667 191.914 50.35 192.314 50.55C192.714 50.7167 193.164 50.8833 193.664 51.05C194.164 51.1833 194.664 51.25 195.164 51.25C195.964 51.25 196.647 51.05 197.214 50.65C197.781 50.25 198.064 49.7167 198.064 49.05C198.064 48.45 197.831 47.9833 197.364 47.65C196.931 47.2833 196.381 46.95 195.714 46.65C195.047 46.35 194.314 46.05 193.514 45.75C192.714 45.4167 191.981 45 191.314 44.5C190.647 44 190.081 43.3833 189.614 42.65C189.181 41.8833 188.964 40.9 188.964 39.7C188.964 38.5667 189.164 37.6167 189.564 36.85C189.997 36.0833 190.531 35.4667 191.164 35C191.831 34.5 192.564 34.15 193.364 33.95C194.164 33.7167 194.931 33.6 195.664 33.6C196.631 33.6 197.664 33.8 198.764 34.2C199.864 34.6 200.797 35.1833 201.564 35.95Z" fill="white"/>
</svg>
