<svg width="19" height="19" viewBox="0 0 19 19" fill="none" xmlns="http://www.w3.org/2000/svg">
<path d="M18.8334 18.031L14.2161 13.4137C15.4547 11.9898 16.2046 10.1319 16.2046 8.10133C16.2046 3.63149 12.5689 0 8.10328 0C3.63344 0 0.00195312 3.6357 0.00195312 8.10133C0.00195312 12.567 3.63765 16.2027 8.10328 16.2027C10.1339 16.2027 11.9918 15.4528 13.4157 14.2142L18.033 18.8315C18.1425 18.941 18.29 19 18.4332 19C18.5765 19 18.7239 18.9452 18.8334 18.8315C19.0525 18.6124 19.0525 18.2501 18.8334 18.031ZM1.13521 8.10133C1.13521 4.2592 4.26116 1.13747 8.09907 1.13747C11.9412 1.13747 15.0629 4.26341 15.0629 8.10133C15.0629 11.9392 11.9412 15.0694 8.09907 15.0694C4.26116 15.0694 1.13521 11.9435 1.13521 8.10133Z" fill="black"/>
</svg>
