<svg width="11" height="14" viewBox="0 0 11 14" fill="none" xmlns="http://www.w3.org/2000/svg">
<path d="M10.9798 6.23595C10.9389 6.34494 10.8435 6.41605 10.7376 6.41605H7.86485V13.7017C7.86485 13.8625 7.7474 13.9931 7.60268 13.9931H3.4081C3.26339 13.9931 3.14593 13.8625 3.14593 13.7017V6.41603H0.262167C0.156262 6.41603 0.0608272 6.34491 0.0199301 6.2365C-0.0204509 6.12752 0.00157055 6.00219 0.0765568 5.91884L5.30667 0.0856786C5.35595 0.0308998 5.42255 0 5.49228 0C5.56201 0 5.62861 0.0308999 5.67789 0.085105L10.9232 5.91826C10.9982 6.00165 11.0207 6.12694 10.9798 6.23595Z" fill="#00C876"/>
</svg>
